<svg xmlns="http://www.w3.org/2000/svg" fill="none" viewBox="0 0 64 65"><path stroke="#36BAA2" stroke-linecap="round" stroke-linejoin="round" stroke-width="1.5" d="M8.002 46.047 2 48.894 27.492 64l34.804-18.845-5.832-2.986"/><path stroke="#36BAA2" stroke-linecap="round" stroke-linejoin="round" stroke-width="1.5" d="m14.107 33.73-11.82 5.605.004-.003 25.488 15.11 34.808-18.846-21.734-11.12"/><path fill="#36BAA2" d="M28.35 3h-1.056v5.58h1.056V3Z"/><path fill="#36BAA2" d="M30.59 6.322V5.26h-5.542v1.063h5.541ZM7.308 26.962H6.252v5.58h1.056v-5.58Z"/><path fill="#36BAA2" d="M9.55 30.287v-1.063H4.01v1.063h5.54Zm10.261-19.819c.491 0 .89-.4.89-.895a.892.892 0 0 0-.89-.896c-.491 0-.89.4-.89.896 0 .494.399.895.89.895Zm1.818-8.677c.49 0 .889-.4.889-.895a.892.892 0 0 0-.89-.896c-.49 0-.889.4-.889.896 0 .494.398.895.89.895ZM5.515 22.549c.49 0 .889-.401.889-.896a.892.892 0 0 0-.89-.895.892.892 0 0 0-.889.895c0 .495.399.896.89.896ZM36.25 4.228c.492 0 .89-.401.89-.896a.892.892 0 0 0-.89-.895c-.49 0-.888.4-.888.895s.398.896.889.896Z"/><path stroke="#36BAA2" stroke-linejoin="round" stroke-width="1.5" d="M12.509 22.642a2.023 2.023 0 0 0 2.016-2.03c0-1.122-.903-2.03-2.016-2.03a2.023 2.023 0 0 0-2.016 2.03c0 1.12.902 2.03 2.016 2.03Z"/><path stroke="#36BAA2" stroke-miterlimit="10" stroke-width="1.5" d="m18.008 13.39 4.939 3.357.053 18.24-4.95-3.362-.042-18.235Zm14.714-4.642 4.914 3.347.184 32.949-4.935-3.35-.163-32.946Zm-7.345 2.319 4.929 3.354.11 25.603-4.943-3.354-.096-25.599v-.004Z"/></svg>